<svg xmlns="http://www.w3.org/2000/svg" width="1280" height="360" viewBox="0 0 1280 360" role="img" aria-label="Hi, I'm Sanket Yerwadkar. Full-Stack Developer building modern web, backend and Android applications.">
<defs><linearGradient id="bg" x1="0" y1="0" x2="1" y2="1"><stop offset="0" stop-color="#0B0F19"/><stop offset="1" stop-color="#0F1730"/></linearGradient>
<linearGradient id="ln" x1="0" x2="1" y1="0" y2="0"><stop offset="0" stop-color="#22D3EE"/><stop offset="1" stop-color="#8B5CF6"/></linearGradient>
<linearGradient id="wv" x1="0" x2="1" y1="0" y2="0"><stop offset="0" stop-color="#22D3EE" stop-opacity="0.30"/><stop offset="1" stop-color="#8B5CF6" stop-opacity="0.30"/></linearGradient>
<radialGradient id="o1"><stop offset="0" stop-color="#22D3EE" stop-opacity="0.28"/><stop offset="1" stop-color="#22D3EE" stop-opacity="0"/></radialGradient>
<radialGradient id="o2"><stop offset="0" stop-color="#8B5CF6" stop-opacity="0.26"/><stop offset="1" stop-color="#8B5CF6" stop-opacity="0"/></radialGradient>
<pattern id="grid" width="40" height="40" patternUnits="userSpaceOnUse"><path d="M40 0H0V40" fill="none" stroke="#FFFFFF" stroke-opacity="0.035"/></pattern><clipPath id="rc"><rect width="1280" height="360" rx="18"/></clipPath></defs>
<rect width="1280" height="360" rx="18" fill="url(#bg)"/>
<rect width="1280" height="360" rx="18" fill="url(#grid)"/>
<circle cx="220" cy="60" r="260" fill="url(#o1)"><animateTransform attributeName="transform" type="translate" values="0 0;70 30;0 0" dur="16s" repeatCount="indefinite"/></circle>
<circle cx="1080" cy="300" r="280" fill="url(#o2)"><animateTransform attributeName="transform" type="translate" values="0 0;-60 -30;0 0" dur="18s" repeatCount="indefinite"/></circle>
<g fill="none" stroke="#22D3EE">
<circle cx="1040" cy="160" r="150" stroke-opacity="0.07"/>
<g><circle cx="1040" cy="160" r="110" stroke-opacity="0.22" stroke-dasharray="3 9"/><circle cx="1150" cy="160" r="5" fill="#22D3EE" stroke="none"/>
<animateTransform attributeName="transform" type="rotate" from="0 1040 160" to="360 1040 160" dur="36s" repeatCount="indefinite"/></g>
<g><circle cx="1040" cy="160" r="66" stroke="#8B5CF6" stroke-opacity="0.35" stroke-dasharray="2 6"/><circle cx="1040" cy="94" r="4" fill="#8B5CF6" stroke="none"/>
<animateTransform attributeName="transform" type="rotate" from="360 1040 160" to="0 1040 160" dur="24s" repeatCount="indefinite"/></g>
</g>
<text x="1040" y="162" font-family="'SFMono-Regular', Consolas, 'Liberation Mono', Menlo, monospace" font-size="46" fill="#FFFFFF" fill-opacity="0.10" text-anchor="middle" dominant-baseline="middle">&lt;/&gt;</text>
<text x="80" y="84" font-family="'SFMono-Regular', Consolas, 'Liberation Mono', Menlo, monospace" font-size="14" letter-spacing="4" fill="#22D3EE">HI, I'M</text>
<text x="77" y="158" font-family="Inter, 'Segoe UI', Helvetica, Arial, sans-serif" font-size="70" font-weight="800" letter-spacing="-1.5" fill="#F8FAFC">Sanket Yerwadkar</text>
<rect x="80" y="180" width="72" height="3" rx="1.5" fill="url(#ln)"/>
<text x="80" y="220" font-family="Inter, 'Segoe UI', Helvetica, Arial, sans-serif" font-size="20" fill="#94A3B8">Full-Stack Developer building modern web, backend and Android applications.</text>
<text x="80" y="266" font-family="'SFMono-Regular', Consolas, 'Liberation Mono', Menlo, monospace" font-size="16" fill="#67E8F9" opacity="0"><tspan fill="#8B5CF6">$ </tspan>building modern Angular + .NET applications<animate attributeName="opacity" dur="12s" begin="0s" repeatCount="indefinite" values="0;1;1;0;0" keyTimes="0;0.06;0.28;0.34;1"/></text><text x="80" y="266" font-family="'SFMono-Regular', Consolas, 'Liberation Mono', Menlo, monospace" font-size="16" fill="#67E8F9" opacity="0"><tspan fill="#8B5CF6">$ </tspan>exploring Android and real-time systems<animate attributeName="opacity" dur="12s" begin="4s" repeatCount="indefinite" values="0;1;1;0;0" keyTimes="0;0.06;0.28;0.34;1"/></text><text x="80" y="266" font-family="'SFMono-Regular', Consolas, 'Liberation Mono', Menlo, monospace" font-size="16" fill="#67E8F9" opacity="0"><tspan fill="#8B5CF6">$ </tspan>shipping privacy-focused products<animate attributeName="opacity" dur="12s" begin="8s" repeatCount="indefinite" values="0;1;1;0;0" keyTimes="0;0.06;0.28;0.34;1"/></text>
<circle cx="1046" cy="44" r="3.5" fill="#22D3EE"><animate attributeName="opacity" values="1;0.25;1" dur="2.4s" repeatCount="indefinite"/></circle>
<text x="1200" y="49" font-family="'SFMono-Regular', Consolas, 'Liberation Mono', Menlo, monospace" font-size="13" fill="#64748B" text-anchor="end">Maharashtra, India</text>
<g clip-path="url(#rc)"><path d="M0,318 Q80,296 160,318 T320,318 Q400,296 480,318 T640,318 Q720,296 800,318 T960,318 Q1040,296 1120,318 T1280,318 Q1360,296 1440,318 T1600,318 Q1680,296 1760,318 T1920,318 Q2000,296 2080,318 T2240,318 Q2320,296 2400,318 T2560,318 L2560,360 L0,360 Z" fill="url(#wv)" opacity="0.9" transform="translate(0,0)"><animateTransform attributeName="transform" type="translate" from="0 0" to="-640 0" dur="14s" repeatCount="indefinite"/></path>
<path d="M0,332 Q80,316 160,332 T320,332 Q400,316 480,332 T640,332 Q720,316 800,332 T960,332 Q1040,316 1120,332 T1280,332 Q1360,316 1440,332 T1600,332 Q1680,316 1760,332 T1920,332 Q2000,316 2080,332 T2240,332 Q2320,316 2400,332 T2560,332 L2560,360 L0,360 Z" fill="url(#wv)" opacity="0.7" transform="translate(-160,0)"><animateTransform attributeName="transform" type="translate" from="-160 0" to="-800 0" dur="22s" repeatCount="indefinite"/></path></g>
<rect x="0.5" y="0.5" width="1279" height="359" rx="18" fill="none" stroke="#FFFFFF" stroke-opacity="0.09"/>
</svg>